<?xml version="1.0" encoding="UTF-8" standalone="no"?>
<!-- Generator: Adobe Illustrator 19.2.1, SVG Export Plug-In . SVG Version: 6.00 Build 0)  -->

<svg
   xmlns:dc="http://purl.org/dc/elements/1.1/"
   xmlns:cc="http://creativecommons.org/ns#"
   xmlns:rdf="http://www.w3.org/1999/02/22-rdf-syntax-ns#"
   xmlns:svg="http://www.w3.org/2000/svg"
   xmlns="http://www.w3.org/2000/svg"
   xmlns:xlink="http://www.w3.org/1999/xlink"
   xmlns:sodipodi="http://sodipodi.sourceforge.net/DTD/sodipodi-0.dtd"
   xmlns:inkscape="http://www.inkscape.org/namespaces/inkscape"
   version="1.1"
   id="layer"
   x="0px"
   y="0px"
   viewBox="0 0 599.90002 164.7"
   xml:space="preserve"
   sodipodi:docname="mongodb.svg"
   width="599.90002"
   height="164.7"
   inkscape:version="0.92.4 (5da689c313, 2019-01-14)"><metadata
   id="metadata69"><rdf:RDF><cc:Work
       rdf:about=""><dc:format>image/svg+xml</dc:format><dc:type
         rdf:resource="http://purl.org/dc/dcmitype/StillImage" /><dc:title></dc:title></cc:Work></rdf:RDF></metadata><defs
   id="defs67" /><sodipodi:namedview
   pagecolor="#ffffff"
   bordercolor="#666666"
   borderopacity="1"
   objecttolerance="10"
   gridtolerance="10"
   guidetolerance="10"
   inkscape:pageopacity="0"
   inkscape:pageshadow="2"
   inkscape:window-width="1920"
   inkscape:window-height="1017"
   id="namedview65"
   showgrid="false"
   fit-margin-top="0"
   fit-margin-left="0"
   fit-margin-right="0"
   fit-margin-bottom="0"
   inkscape:zoom="0.36196319"
   inkscape:cx="-43.857627"
   inkscape:cy="79.1"
   inkscape:window-x="1912"
   inkscape:window-y="-8"
   inkscape:window-maximized="1"
   inkscape:current-layer="layer" />
<style
   type="text/css"
   id="style2">
	.st0{clip-path:url(#SVGID_4_);fill:url(#SVGID_5_);}
	.st1{clip-path:url(#SVGID_7_);fill:url(#SVGID_8_);}
	.st2{fill:#FFE29C;}
	.st3{fill:#47474A;}
</style>
<g
   id="g12"
   transform="translate(-25.9,-240.4)">
	<defs
   id="defs5">
		<path
   id="SVGID_1_"
   d="m 59.6,261.1 c -6.9,1.8 -8.4,114.6 -4.9,118.6 8.1,1.6 7.5,23.9 7.5,23.9 l 4.4,1.5 c 0,0 -0.9,-11.7 0.4,-17.3 1.3,-5.6 7.9,-9 7.9,-9 C 68.5,292 63.5,262 60,261.1 Z"
   inkscape:connector-curvature="0" />
	</defs>
	<use
   xlink:href="#SVGID_1_"
   style="overflow:visible;fill:#c2bfbf"
   id="use7"
   x="0"
   y="0"
   width="100%"
   height="100%" />
	<clipPath
   id="SVGID_2_">
		<use
   xlink:href="#SVGID_1_"
   style="overflow:visible"
   id="use9"
   x="0"
   y="0"
   width="100%"
   height="100%" />
	</clipPath>
</g>
<g
   id="g27"
   transform="translate(-25.9,-240.4)">
	<defs
   id="defs15">
		<path
   id="SVGID_3_"
   d="m 63.9,347.2 c 0,0 -3.4,32.5 5.1,36.4 0,0 38.4,-25.3 29.4,-77.8 -8.7,-38.2 -29.1,-50.7 -31.3,-55.5 -2.4,-3.4 -4.9,-9.4 -4.9,-9.4 z"
   inkscape:connector-curvature="0" />
	</defs>
	<clipPath
   id="SVGID_4_">
		<use
   xlink:href="#SVGID_3_"
   style="overflow:visible"
   id="use17"
   x="0"
   y="0"
   width="100%"
   height="100%" />
	</clipPath>
	
		<linearGradient
   id="SVGID_5_"
   gradientUnits="userSpaceOnUse"
   x1="8.3659"
   y1="723.5603"
   x2="12.5354"
   y2="723.5603"
   gradientTransform="matrix(8.5332,33.1259,35.6422,-5.7144,-25769.328,4338.3004)">
		<stop
   offset="0"
   style="stop-color:#49A547"
   id="stop20" />
		<stop
   offset="1"
   style="stop-color:#409143"
   id="stop22" />
	</linearGradient>
	<polygon
   class="st0"
   points="62.4,390.8 25.2,246.5 105.6,233.6 142.8,377.9 "
   clip-path="url(#SVGID_4_)"
   id="polygon25"
   style="fill:url(#SVGID_5_)" />
</g>
<g
   id="g46"
   transform="translate(-25.9,-240.4)">
	<defs
   id="defs30">
		<path
   id="SVGID_6_"
   d="m 58.5,248.5 c -5,3.9 -30.4,25.2 -32.5,68.6 -0.1,1.2 -0.1,2.4 -0.1,3.5 0,41.2 34,64.4 34,64.4 2.5,-5.8 5.1,-34.1 4.2,-64.7 -0.2,-7.9 0.1,-75.1 -2.1,-79.9 -0.1,3.3 -0.3,4.7 -3.5,8.1"
   inkscape:connector-curvature="0" />
	</defs>
	<clipPath
   id="SVGID_7_">
		<use
   xlink:href="#SVGID_6_"
   style="overflow:visible"
   id="use32"
   x="0"
   y="0"
   width="100%"
   height="100%" />
	</clipPath>
	
		<linearGradient
   id="SVGID_8_"
   gradientUnits="userSpaceOnUse"
   x1="22.2736"
   y1="745.44202"
   x2="26.4431"
   y2="745.44202"
   gradientTransform="matrix(14.9349,-3.3934,-4.6669,-13.9447,3193.3082,11029.177)">
		<stop
   offset="0"
   style="stop-color:#42A347"
   id="stop35" />
		<stop
   offset="0.329"
   style="stop-color:#4AA74A"
   id="stop37" />
		<stop
   offset="0.8484"
   style="stop-color:#61B251"
   id="stop39" />
		<stop
   offset="1"
   style="stop-color:#69B654"
   id="stop41" />
	</linearGradient>
	<polygon
   class="st1"
   points="110.1,374.7 28.7,393.2 -19.1,250.6 62.4,232.1 "
   clip-path="url(#SVGID_7_)"
   id="polygon44"
   style="fill:url(#SVGID_8_)" />
</g>
<g
   id="g62"
   transform="translate(-25.9,-240.4)">
	<path
   class="st2"
   d="m 478.3,296.8 c 2.1,0 9.9,0.4 13.5,0.4 6.8,0 11.5,-0.4 24.2,-0.4 10.6,0 19.6,2.9 26,8.5 7.7,6.8 11.9,16.2 11.9,27.7 0,16.3 -7.4,25.8 -14.8,31.1 -7.4,5.6 -16.9,8.7 -30.6,8.7 -7.3,0 -19.7,-0.2 -30.1,-0.4 h -0.1 c -0.5,-1 0.9,-4.7 1.7,-4.8 2.8,-0.3 3.6,-0.4 4.9,-1 2.2,-0.9 2.7,-2 3,-6 0.4,-7.5 0.2,-16.5 0.2,-26.6 0,-7.3 0.1,-21.4 -0.1,-25.9 -0.4,-3.7 -1.9,-4.7 -5.1,-5.4 -1.6,-0.4 -3.8,-0.7 -6.8,-1.1 -0.3,-0.8 1.6,-4.1 2.2,-4.8 m 24.1,67.3 c 2.5,2.1 7.6,2.9 12.1,2.9 5.8,0 11.5,-1.1 17.1,-6.2 5.7,-5.2 9.6,-13.2 9.6,-25.9 0,-12.2 -4.6,-22.1 -14,-28 -5.3,-3.4 -12.2,-4.7 -20.1,-4.7 -2.3,0 -4.6,0.1 -5.9,0.7 -0.4,0.2 -1.1,1.2 -1.1,1.7 -0.2,2.2 -0.2,18.8 -0.2,28.6 0,10 0,24.1 0.2,25.8 0,1.4 0.8,4 2.3,5.1"
   id="path48"
   inkscape:connector-curvature="0"
   style="fill:#ffe29c" />
	<path
   class="st2"
   d="m 564,296.8 c 1.1,0 4.3,0.4 12.5,0.4 7.7,0 14,-0.2 21.5,-0.2 9.3,0 22.1,3.4 22.1,17.4 0,6.9 -4.8,12.5 -11.1,15.1 -0.4,0.1 -0.4,0.4 0,0.5 9,2.3 16.8,7.9 16.8,18.5 0,10.4 -6.4,16.9 -15.7,21.1 -5.7,2.5 -12.7,3.4 -19.8,3.4 -5.4,0 -20,-0.6 -28.1,-0.5 -0.9,-0.4 0.8,-4.2 1.5,-4.8 1.9,-0.1 3.4,-0.3 5.5,-0.9 2.9,-0.7 3.2,-1.7 3.6,-6 0.2,-3.8 0.2,-17.2 0.2,-26.7 0,-13.1 0.1,-21.9 0,-26.3 -0.1,-3.4 -1.3,-4.5 -3.6,-5.1 -1.8,-0.4 -4.8,-0.7 -7.3,-1.1 -0.5,-0.7 1.3,-4.3 1.9,-4.8 m 49.4,54.3 c 0,-10.6 -7.7,-16.7 -21.9,-16.7 -0.6,0 -5.1,-0.1 -6.2,0.1 -0.4,0.1 -0.7,0.4 -0.7,0.6 0,7.6 -0.1,19.8 0.2,24.7 0.2,2.1 1.7,5 3.5,5.8 1.9,1.1 6.3,1.3 9.3,1.3 8.4,0.1 15.8,-4.6 15.8,-15.8 m -27.5,-48.4 c -0.5,0.1 -1.1,1.3 -1.1,1.9 -0.1,4.4 -0.2,15.7 -0.2,23.6 0,0.2 0.4,0.6 0.6,0.6 1.6,0.1 5.4,0.2 8.7,0.2 4.6,0 7.3,-0.6 8.7,-1.3 3.9,-1.9 5.7,-6.2 5.7,-10.8 0,-10.5 -7.3,-14.5 -18,-14.5 -0.8,0.1 -2.8,0.1 -4.4,0.3"
   id="path50"
   inkscape:connector-curvature="0"
   style="fill:#ffe29c" />
	<path
   class="st3"
   d="m 131.2,372.7 c -0.2,-0.3 -0.4,-1.3 -0.4,-2.4 0,-0.9 0.2,-1.4 0.4,-1.6 2.3,-0.4 3.4,-0.6 4.6,-1 2.1,-0.5 2.9,-1.7 3.1,-4.5 0.4,-6.5 0.4,-18.8 0.2,-27.4 v -0.3 c 0,-0.9 0,-2.2 -1.1,-3.1 -1.7,-1.1 -3.8,-2 -6.4,-2.9 -1,-0.3 -1.6,-0.8 -1.5,-1.5 0,-0.6 0.7,-1.4 2,-1.6 3.5,-0.4 12.7,-2.6 16.3,-4.3 0.2,0.3 0.6,0.8 0.5,1.7 0,0.4 -0.1,0.8 -0.1,1.2 -0.1,1.2 -0.2,2.6 -0.2,4 0,0.4 0.4,0.8 0.9,0.8 0.2,0 0.5,-0.1 0.6,-0.3 6.9,-5.4 13,-7.4 16.2,-7.4 5.2,0 9.2,2.5 12.4,7.7 0.2,0.3 0.4,0.4 0.7,0.4 0.3,0 0.5,-0.1 0.7,-0.4 6.3,-4.8 12.6,-7.7 16.8,-7.7 9.9,0 15.8,7.5 15.8,20.1 0,3.6 0,8.2 -0.1,12.5 0,3.7 -0.1,7.3 -0.1,9.7 0,0.6 0.8,2.2 2,2.6 1.4,0.7 3.5,1.1 6.2,1.5 h 0.1 c 0.2,0.7 -0.2,3.5 -0.6,4.1 -0.7,0 -1.6,-0.1 -2.7,-0.1 -2.1,-0.1 -4.9,-0.3 -8.2,-0.3 -6.6,0 -10,0.1 -13.3,0.3 -0.2,-0.8 -0.3,-3.5 0,-4.1 1.9,-0.4 2.9,-0.6 4,-1 2.1,-0.7 2.7,-1.7 2.8,-4.5 0,-2 0.4,-19.6 -0.2,-23.8 -0.6,-4.3 -3.9,-9.4 -10.9,-9.4 -2.6,0 -6.9,1.1 -10.9,4.2 -0.3,0.2 -0.4,0.7 -0.4,1 v 0.1 c 0.5,2.3 0.5,4.9 0.5,8.9 0,2.3 0,4.7 0,7.1 0,4.9 -0.1,9.4 0,12.9 0,2.4 1.4,2.9 2.5,3.4 0.6,0.1 1.1,0.3 1.6,0.4 1,0.2 1.9,0.5 3.4,0.7 0.2,0.5 0.2,1.9 -0.1,3 -0.2,0.7 -0.3,1 -0.4,1 -3.7,-0.1 -7.4,-0.2 -12.8,-0.2 -1.6,0 -4.3,0.1 -6.7,0.1 -1.9,0.1 -3.7,0.1 -4.8,0.1 -0.2,-0.2 -0.4,-1 -0.4,-2.1 0,-1 0.2,-1.7 0.4,-2 0.5,-0.1 1,-0.2 1.5,-0.3 1.3,-0.2 2.4,-0.4 3.4,-0.7 1.8,-0.6 2.5,-1.6 2.6,-3.9 0.4,-5.4 0.6,-20.9 -0.1,-24.8 -1.3,-6.2 -4.8,-9.4 -10.4,-9.4 -3.3,0 -7.5,1.6 -10.9,4.2 -0.6,0.4 -1,1.5 -1,2.5 0,1.8 0,4 0,6.4 0,7.8 -0.1,17.5 0.1,21.7 0.1,1.3 0.6,2.8 3,3.4 0.5,0.2 1.4,0.3 2.5,0.5 0.6,0.1 1.3,0.2 1.9,0.3 0.2,0.7 0.1,3.3 -0.3,4.1 -1.1,0 -2.3,-0.1 -3.8,-0.1 -2.3,-0.1 -5.1,-0.2 -8.3,-0.2 -3.8,0 -6.4,0.1 -8.5,0.2 -1.7,0.4 -2.9,0.5 -4.1,0.5"
   id="path52"
   inkscape:connector-curvature="0"
   style="fill:#47474a" />
	<path
   class="st3"
   d="m 253.1,373.8 c -18.2,0 -24.7,-13.5 -24.7,-26.1 0,-8.8 3.6,-15.7 10.6,-20.5 5,-3.1 11,-4.9 16.4,-4.9 13.9,0 23.6,10.1 23.6,24.5 0,9.8 -3.9,17.6 -11.2,22.4 -3.5,2.2 -9.6,4.6 -14.7,4.6 m -1.9,-46.4 c -2.2,0 -4.3,0.6 -5.8,1.6 -4.2,2.6 -6.3,7.7 -6.3,15.3 0,14.2 7,24.1 17.1,24.1 3,0 5.4,-0.9 7.4,-2.6 3.1,-2.6 4.7,-7.8 4.7,-15.1 0,-13.9 -6.9,-23.3 -17.1,-23.3"
   id="path54"
   inkscape:connector-curvature="0"
   style="fill:#47474a" />
	<path
   class="st3"
   d="m 441.4,373.8 c -18.2,0 -24.7,-13.5 -24.7,-26.1 0,-8.8 3.6,-15.7 10.6,-20.5 5,-3.1 11,-4.9 16.4,-4.9 13.9,0 23.6,10.1 23.6,24.5 0,9.8 -3.9,17.6 -11.2,22.4 -3.5,2.2 -9.6,4.6 -14.7,4.6 m -1.9,-46.4 c -2.2,0 -4.3,0.6 -5.8,1.6 -4.2,2.6 -6.3,7.7 -6.3,15.3 0,14.2 7,24.1 17.1,24.1 3,0 5.4,-0.9 7.4,-2.6 3.1,-2.6 4.7,-7.8 4.7,-15.1 -0.1,-13.9 -6.9,-23.3 -17.1,-23.3"
   id="path56"
   inkscape:connector-curvature="0"
   style="fill:#47474a" />
	<path
   class="st3"
   d="m 378.6,402.8 c -6.5,0 -11.2,-1.4 -15.2,-4.5 -3.9,-3.1 -5.7,-7.6 -5.7,-10.7 0,-0.9 0.2,-3.2 2.1,-5.4 1.1,-1.3 3.8,-3.8 9.9,-8 0.2,-0.1 0.3,-0.3 0.3,-0.5 0,-0.3 -0.2,-0.5 -0.4,-0.5 -5,-1.9 -6.5,-5.1 -7,-6.9 0,-0.1 0,-0.2 -0.1,-0.3 -0.1,-0.7 -0.3,-1.3 0.6,-2 0.7,-0.5 1.8,-1.2 3,-1.9 1.8,-1.1 3.8,-2.2 4.9,-3.2 0.2,-0.2 0.2,-0.4 0.2,-0.7 0,-0.3 -0.2,-0.5 -0.4,-0.6 -7.4,-2.5 -11.2,-8.1 -11.2,-16.6 0,-5.5 2.5,-10.4 6.9,-13.6 3,-2.4 10.5,-5.3 15.3,-5.3 h 0.3 c 5,0.1 7.8,1.2 11.7,2.6 2.1,0.8 4.1,1.1 6.9,1.1 4.1,0 5.9,-1.3 7.5,-2.8 0.1,0.2 0.3,0.8 0.4,2.2 0.1,1.4 -0.3,3.5 -1.3,5 -0.8,1.2 -2.8,2 -4.7,2 -0.2,0 -0.4,0 -0.5,0 -1.9,-0.2 -2.8,-0.5 -2.8,-0.5 l -0.5,0.2 c -0.1,0.2 -0.1,0.5 0.1,0.8 0,0.1 0.1,0.1 0.1,0.2 0.2,1 0.7,3.8 0.7,4.6 0,8.9 -3.5,12.8 -7.2,15.7 -3.6,2.7 -7.8,4.4 -12.5,4.9 v 0 c -0.1,0 -0.5,0 -1.4,0.1 -0.6,0.1 -1.3,0.1 -1.4,0.1 h -0.1 c -0.8,0.2 -2.9,1.3 -2.9,3.2 0,1.6 1,3.5 5.6,3.9 0.9,0.1 1.9,0.1 3,0.2 6.1,0.4 13.7,1 17.2,2.2 4.9,1.8 8,6.3 8,11.6 0,8 -5.6,15.5 -15,20.1 -4.7,2.3 -9.4,3.3 -14.4,3.3 m -0.7,-28.1 c -2.1,0 -3.6,0.6 -4.5,1.1 -4.4,2.9 -6.5,5.7 -6.5,9.1 0,3.1 1.2,5.6 3.8,7.8 3.1,2.7 7.3,4 12.8,4 10.9,0 15.7,-5.9 15.7,-11.8 0,-4.1 -2,-6.8 -6.2,-8.4 -3.2,-1.1 -8.5,-1.8 -15.1,-1.8 m 0.7,-47.7 c -5.6,0 -9.2,4.5 -9.2,11.4 0,7 3.1,15.2 11.9,15.2 1.5,0 4.2,-0.7 5.6,-2.2 2,-1.9 3.4,-5.8 3.4,-9.9 0,-9.2 -4.4,-14.5 -11.7,-14.5"
   id="path58"
   inkscape:connector-curvature="0"
   style="fill:#47474a" />
	<path
   class="st3"
   d="m 349.1,368.2 c -2.7,-0.4 -4.6,-0.7 -6.9,-1.8 -0.4,-0.2 -0.9,-1.3 -0.9,-1.7 -0.2,-3.7 -0.2,-14.6 -0.2,-21.8 0,-5.8 -1,-10.9 -3.4,-14.5 -2.9,-4.1 -7,-6.5 -12.3,-6.5 -4.7,0 -11,3.3 -16.2,7.7 -0.1,0.1 -0.9,0.9 -0.9,-0.3 0,-1.2 0.2,-3.6 0.3,-5.1 0.1,-1.5 -0.8,-2.2 -0.8,-2.2 -3.4,1.7 -12.9,4 -16.5,4.4 -2.6,0.5 -3.3,3 -0.5,3.9 v 0 c 0,0 0,0 0,0 2.9,0.9 4.8,1.8 6.2,2.8 1.1,0.8 1,2.1 1,3 0.1,8.1 0.1,20.6 -0.2,27.3 -0.1,2.7 -0.8,3.6 -2.8,4.1 l 0.2,-0.1 c -1.5,0.4 -2.7,0.6 -4.5,0.8 -0.6,0.6 -0.6,4.1 0,4.8 1.2,0 7.4,-0.4 12.5,-0.4 7,0 10.6,0.4 12.5,0.4 0.7,-0.9 1,-4.1 0.5,-4.8 -2.1,-0.1 -3.5,-0.4 -5,-0.7 -1.9,-0.5 -2.4,-1.5 -2.5,-3.6 -0.2,-5.7 -0.2,-17.8 -0.2,-26 0,-2.3 0.6,-3.4 1.3,-4 2.4,-2.2 6.4,-3.6 9.9,-3.6 3.4,0 5.7,1.1 7.4,2.5 2.3,1.9 3.1,4.7 3.4,6.8 0.5,4.6 0.4,13.8 0.4,21.8 0,4.4 -0.4,5.4 -1.9,5.9 -0.7,0.4 -2.7,0.7 -5,1 -0.7,0.7 -0.5,4.1 0,4.8 3.1,0 6.8,-0.4 12.1,-0.4 6.7,0 10.9,0.4 12.6,0.4 0.6,-0.9 0.9,-4 0.4,-4.9"
   id="path60"
   inkscape:connector-curvature="0"
   style="fill:#47474a" />
</g>
</svg>