<?xml version="1.0" encoding="UTF-8" standalone="no"?>
<!-- Generator: Adobe Illustrator 18.0.0, SVG Export Plug-In . SVG Version: 6.00 Build 0)  -->

<svg
   xmlns:dc="http://purl.org/dc/elements/1.1/"
   xmlns:cc="http://creativecommons.org/ns#"
   xmlns:rdf="http://www.w3.org/1999/02/22-rdf-syntax-ns#"
   xmlns:svg="http://www.w3.org/2000/svg"
   xmlns="http://www.w3.org/2000/svg"
   xmlns:sodipodi="http://sodipodi.sourceforge.net/DTD/sodipodi-0.dtd"
   xmlns:inkscape="http://www.inkscape.org/namespaces/inkscape"
   version="1.1"
   id="Capa_1"
   x="0px"
   y="0px"
   viewBox="0 0 433.632 300.87901"
   xml:space="preserve"
   sodipodi:docname="keyboard.svg"
   width="433.63199"
   height="300.879"
   inkscape:version="0.92.4 (5da689c313, 2019-01-14)"><metadata
   id="metadata49"><rdf:RDF><cc:Work
       rdf:about=""><dc:format>image/svg+xml</dc:format><dc:type
         rdf:resource="http://purl.org/dc/dcmitype/StillImage" /><dc:title></dc:title></cc:Work></rdf:RDF></metadata><defs
   id="defs47" /><sodipodi:namedview
   pagecolor="#ffffff"
   bordercolor="#666666"
   borderopacity="1"
   objecttolerance="10"
   gridtolerance="10"
   guidetolerance="10"
   inkscape:pageopacity="0"
   inkscape:pageshadow="2"
   inkscape:window-width="1366"
   inkscape:window-height="705"
   id="namedview45"
   showgrid="false"
   fit-margin-top="0"
   fit-margin-left="0"
   fit-margin-right="0"
   fit-margin-bottom="0"
   inkscape:zoom="0.54424029"
   inkscape:cx="184.66108"
   inkscape:cy="150.43901"
   inkscape:window-x="-8"
   inkscape:window-y="-8"
   inkscape:window-maximized="1"
   inkscape:current-layer="Capa_1" />
<g
   id="g12"
   transform="translate(0,-66.376)">
	<path
   d="M 411.999,130.626 H 73.567 v -5.002 c 0,-5.375 4.373,-9.749 9.749,-9.749 h 282.935 c 13.646,0 24.749,-11.103 24.749,-24.749 0,-13.647 -11.103,-24.75 -24.749,-24.75 h -68.445 c -4.143,0 -7.5,3.358 -7.5,7.5 0,4.142 3.357,7.5 7.5,7.5 h 68.445 c 5.376,0 9.749,4.374 9.749,9.75 0,5.375 -4.373,9.749 -9.749,9.749 H 83.316 c -13.646,0 -24.749,11.103 -24.749,24.749 v 5.002 H 21.634 C 9.705,130.626 0,140.332 0,152.26 v 193.362 c 0,11.929 9.705,21.633 21.634,21.633 h 390.365 c 11.929,0 21.633,-9.705 21.633,-21.633 V 152.26 c 0,-11.928 -9.704,-21.634 -21.633,-21.634 z m 6.633,214.996 c 0,3.658 -2.976,6.633 -6.633,6.633 H 21.634 C 17.976,352.255 15,349.279 15,345.622 V 152.26 c 0,-3.658 2.976,-6.634 6.634,-6.634 h 390.365 c 3.657,0 6.633,2.976 6.633,6.634 z"
   id="path2"
   inkscape:connector-curvature="0" />
	<path
   d="M 401.132,155.627 H 32.5 c -4.143,0 -7.5,3.358 -7.5,7.5 v 171.628 c 0,4.142 3.357,7.5 7.5,7.5 h 368.632 c 4.143,0 7.5,-3.358 7.5,-7.5 V 163.127 c 0,-4.142 -3.358,-7.5 -7.5,-7.5 z m -115.377,15 h 46.438 v 27.875 h -46.438 z m -184.317,85.816 h 46.438 v 27.937 h -46.438 z m -30.718,-15 v -27.941 h 46.438 v 27.941 z m 61.438,0 v -27.941 h 46.438 v 27.941 z m 30.719,15 h 46.439 v 27.937 h -46.439 z m 30.72,-15 v -27.941 h 46.438 v 27.941 z m 30.719,15 h 46.438 v 27.937 h -46.438 z m 30.719,-15 v -27.941 h 46.438 v 27.941 z m 30.72,15 h 46.438 v 27.937 h -46.438 z m 30.719,-15 v -27.941 h 32.605 v 27.941 z m -92.158,-70.816 h 46.438 v 27.875 h -46.438 z m -61.439,0 h 46.439 v 27.875 h -46.439 z m -61.439,0 h 46.438 v 27.875 h -46.438 z m -61.438,0 h 46.438 v 27.875 H 40 Z m 0,42.875 h 15.72 v 27.941 H 40 Z m 0,42.941 H 86.438 V 284.38 H 40 Z m 15.72,70.812 H 40 V 299.38 h 15.72 z m 61.438,0 H 70.72 V 299.38 h 46.438 z m 61.439,0 H 132.159 V 299.38 h 46.438 z m 61.438,0 H 193.597 V 299.38 h 46.438 z m 61.439,0 H 255.036 V 299.38 h 46.438 z m 61.438,0 H 316.474 V 299.38 h 46.438 z m 30.72,0 h -15.72 V 299.38 h 15.72 z m 0,-42.875 h -46.438 v -27.937 h 9.386 c 4.143,0 7.5,-3.358 7.5,-7.5 v -35.441 h 29.553 v 70.878 z m 0,-85.878 h -46.438 v -27.875 h 46.438 z"
   id="path4"
   inkscape:connector-curvature="0" />
	<path
   d="m 270.119,76.745 c -0.022,-0.052 -0.035,-0.082 -0.043,-0.102 0.038,0.09 0.174,0.41 0.043,0.102 z"
   id="path6"
   inkscape:connector-curvature="0" />
	<path
   d="m 282.35,79.185 c 4.21,-4.337 1.792,-11.93 -4.298,-12.735 -5.578,-0.738 -10.16,5.034 -7.932,10.295 2.061,4.874 8.44,6.114 12.23,2.44 z"
   id="path8"
   inkscape:connector-curvature="0" />
	<path
   d="m 270.076,76.643 c -0.011,-0.027 -0.015,-0.035 0,0 z"
   id="path10"
   inkscape:connector-curvature="0" />
</g>
<g
   id="g14"
   transform="translate(0,-66.376)">
</g>
<g
   id="g16"
   transform="translate(0,-66.376)">
</g>
<g
   id="g18"
   transform="translate(0,-66.376)">
</g>
<g
   id="g20"
   transform="translate(0,-66.376)">
</g>
<g
   id="g22"
   transform="translate(0,-66.376)">
</g>
<g
   id="g24"
   transform="translate(0,-66.376)">
</g>
<g
   id="g26"
   transform="translate(0,-66.376)">
</g>
<g
   id="g28"
   transform="translate(0,-66.376)">
</g>
<g
   id="g30"
   transform="translate(0,-66.376)">
</g>
<g
   id="g32"
   transform="translate(0,-66.376)">
</g>
<g
   id="g34"
   transform="translate(0,-66.376)">
</g>
<g
   id="g36"
   transform="translate(0,-66.376)">
</g>
<g
   id="g38"
   transform="translate(0,-66.376)">
</g>
<g
   id="g40"
   transform="translate(0,-66.376)">
</g>
<g
   id="g42"
   transform="translate(0,-66.376)">
</g>
</svg>