<?xml version="1.0" encoding="utf-8"?>
<!-- Svg Vector Icons : http://www.onlinewebfonts.com/icon -->
<!DOCTYPE svg PUBLIC "-//W3C//DTD SVG 1.1//EN" "http://www.w3.org/Graphics/SVG/1.1/DTD/svg11.dtd">
<svg version="1.1" xmlns="http://www.w3.org/2000/svg" xmlns:xlink="http://www.w3.org/1999/xlink" x="0px" y="0px" viewBox="0 0 1000 1000" enable-background="new 0 0 1000 1000" xml:space="preserve">
<metadata> Svg Vector Icons : http://www.onlinewebfonts.com/icon </metadata>
<g><g transform="translate(0.000000,511.000000) scale(0.100000,-0.100000)"><path d="M3001,4989.8c-351.2-69.4-649.3-371.6-716.7-731c-28.6-151.1-28.6-8143.2,0-8294.3c69.4-367.5,365.5-663.6,733.1-733.1c149.1-28.6,3816.3-28.6,3965.4,0c367.5,69.4,663.6,365.5,733.1,733.1c28.6,151.1,28.6,8143.2,0,8294.3c-69.4,367.5-367.5,665.7-733.1,733C6845.9,5016.4,3129.6,5016.4,3001,4989.8z M5408.4,4542.6c49-49,53.1-108.2,8.2-151.1c-26.5-26.6-93.9-32.7-416.5-32.7c-416.5,0-449.2,8.2-449.2,112.3c0,98,59.2,112.3,453.3,112.3C5341,4583.5,5371.6,4579.4,5408.4,4542.6z M7297.2,4001.5l51.1-49V703.8v-3248.7l-51.1-49l-49-51H5000H2751.8l-49,51l-51,49V703.8v3248.7l51,49l49,51H5000h2248.1L7297.2,4001.5z M5234.8-3216.7c136.8-75.5,218.5-204.2,230.7-367.5c10.2-149.1-22.5-249.1-116.4-353.3c-290-322.6-816.8-120.5-818.8,314.4c0,163.4,79.6,312.4,210.3,394.1C4910.2-3124.8,5061.2-3120.7,5234.8-3216.7z"/></g></g>
</svg>