<?xml version="1.0" encoding="utf-8"?>
<!-- Svg Vector Icons : http://www.onlinewebfonts.com/icon -->
<!DOCTYPE svg PUBLIC "-//W3C//DTD SVG 1.1//EN" "http://www.w3.org/Graphics/SVG/1.1/DTD/svg11.dtd">
<svg version="1.1" xmlns="http://www.w3.org/2000/svg" xmlns:xlink="http://www.w3.org/1999/xlink" x="0px" y="0px" viewBox="0 0 1000 1000" enable-background="new 0 0 1000 1000" xml:space="preserve">
<metadata> Svg Vector Icons : http://www.onlinewebfonts.com/icon </metadata>
<g><g transform="translate(0.000000,511.000000) scale(0.100000,-0.100000)"><path d="M420.3,4166.5c-115.1-40.3-216.7-128.5-278.1-241.7l-42.2-76.7V760.4v-3087.7l51.8-88.2c59.4-101.7,140-176.4,243.6-224.4c63.3-30.7,203.3-32.6,1637.8-38.4c861.1-1.9,1566.9-11.5,1566.9-19.2c-1.9-55.6-230.1-911-249.3-934c-19.2-23-76.7-28.8-278.1-28.8c-228.2,0-258.9-3.8-304.9-40.3c-61.4-49.9-69-161.1-13.4-230.1l36.4-46l2165.2-5.8c1189-1.9,2182.5,0,2207.4,5.8c122.8,30.7,164.9,201.4,69.1,276.2c-46,36.4-76.7,40.3-304.9,40.3c-201.4,0-258.9,5.8-278.1,28.8s-247.4,878.3-249.3,934c0,7.7,705.8,17.3,1568.8,19.2c1731.8,5.8,1624.4-1.9,1775.9,130.4c38.3,34.5,90.1,99.7,113.1,141.9l42.2,78.6V760.4v3087.7l-42.2,78.6c-23,42.2-76.7,109.3-118.9,147.7c-153.4,138.1,222.5,128.5-4746.6,128.5C706,4201,518.1,4201,420.3,4166.5z M9537.5,3813.6l46-53.7V1362.6v-2395.4H5000H416.4v2393.4c0,2167.1,3.8,2397.3,30.7,2435.6c17.3,24.9,49.9,51.8,72.9,61.4c23,9.6,2015.6,15.3,4504.9,13.4l4466.6-3.8L9537.5,3813.6z M9583.6-1778.7c0-232.1-7.7-443-19.2-471.8C9522.2-2361.8,9809.9-2356,5000-2356c-4738.9,0-4510.7-3.8-4562.5,92.1c-13.4,25-21.1,199.5-21.1,471.8v433.4H5000h4583.6V-1778.7z M6072.1-2753c70.9-274.2,212.9-861.1,212.9-882.2c0-21.1-226.3-24.9-1284.9-24.9c-1143,0-1284.9,3.8-1284.9,28.8s138.1,596.4,212.9,878.3l19.2,71H5000h1052.9L6072.1-2753z"/><path d="M4837-1575.5c-216.7-122.8-212.9-446.8,9.6-563.8c105.5-55.6,201.4-55.6,306.8,0c97.8,51.8,172.6,172.6,172.6,281.9C5326-1611.9,5051.8-1454.6,4837-1575.5z"/></g></g>
</svg>